HIERARCHY
ROOT Hips
{
 OFFSET 0.000000 0.000000 0.000000
 CHANNELS 6 Xposition Yposition Zposition Yrotation Xrotation Zrotation
 JOINT Chest
 {
  OFFSET 0.000000 10.354800 0.006500
  CHANNELS 3 Yrotation Xrotation Zrotation
  JOINT Chest2
  {
   OFFSET 0.000000 10.435800 -0.013200
   CHANNELS 3 Yrotation Xrotation Zrotation
   JOINT Chest3
   {
    OFFSET 0.000000 10.393700 0.000000
    CHANNELS 3 Yrotation Xrotation Zrotation
    JOINT Chest4
    {
     OFFSET 0.000000 10.383100 0.000000
     CHANNELS 3 Yrotation Xrotation Zrotation
     JOINT Neck
     {
      OFFSET 0.000000 15.694000 0.000000
      CHANNELS 3 Yrotation Xrotation Zrotation
      JOINT Head
      {
       OFFSET 0.000000 9.711000 -0.028000
       CHANNELS 3 Yrotation Xrotation Zrotation
       End Site
       {
        OFFSET 0.000000 18.578700 -0.014800
       }
      }
     }
     JOINT RightCollar
     {
      OFFSET -3.157200 10.367500 0.000000
      CHANNELS 3 Yrotation Xrotation Zrotation
      JOINT RightShoulder
      {
       OFFSET -14.482500 0.000000 0.000000
       CHANNELS 3 Yrotation Xrotation Zrotation
       JOINT RightElbow
       {
        OFFSET 0.000000 -31.707800 0.000000
        CHANNELS 3 Yrotation Xrotation Zrotation
        JOINT RightWrist
        {
         OFFSET 0.000000 -25.659300 0.000000
         CHANNELS 3 Yrotation Xrotation Zrotation
         End Site
         {
          OFFSET 0.000000 -18.994300 0.000000
         }
        }
       }
      }
     }
     JOINT LeftCollar
     {
      OFFSET 3.157200 10.367500 0.000000
      CHANNELS 3 Yrotation Xrotation Zrotation
      JOINT LeftShoulder
      {
       OFFSET 14.482500 0.000000 0.000000
       CHANNELS 3 Yrotation Xrotation Zrotation
       JOINT LeftElbow
       {
        OFFSET 0.000000 -31.707800 0.000000
        CHANNELS 3 Yrotation Xrotation Zrotation
        JOINT LeftWrist
        {
         OFFSET 0.000000 -25.659300 0.000000
         CHANNELS 3 Yrotation Xrotation Zrotation
         End Site
         {
          OFFSET 0.000000 -18.994300 0.000000
         }
        }
       }
      }
     }
    }
   }
  }
 }
 JOINT RightHip
 {
  OFFSET -8.365600 -0.032100 -0.003200
  CHANNELS 3 Yrotation Xrotation Zrotation
  JOINT RightKnee
  {
   OFFSET 0.000000 -43.980000 0.003100
   CHANNELS 3 Yrotation Xrotation Zrotation
   JOINT RightAnkle
   {
    OFFSET 0.000000 -42.882800 0.005200
    CHANNELS 3 Yrotation Xrotation Zrotation
    JOINT RightToe
    {
     OFFSET 0.000000 -4.915500 10.826300
     CHANNELS 3 Yrotation Xrotation Zrotation
     End Site
     {
      OFFSET 0.000000 -1.517500 6.175900
     }
    }
   }
  }
 }
 JOINT LeftHip
 {
  OFFSET 8.365600 -0.032100 -0.003200
  CHANNELS 3 Yrotation Xrotation Zrotation
  JOINT LeftKnee
  {
   OFFSET 0.000000 -43.980000 0.003100
   CHANNELS 3 Yrotation Xrotation Zrotation
   JOINT LeftAnkle
   {
    OFFSET 0.000000 -42.882800 0.005200
    CHANNELS 3 Yrotation Xrotation Zrotation
    JOINT LeftToe
    {
     OFFSET 0.000000 -4.915500 10.826300
     CHANNELS 3 Yrotation Xrotation Zrotation
     End Site
     {
      OFFSET 0.000000 -1.517500 6.175900
     }
    }
   }
  }
 }
}
MOTION
Frames: 11
Frame Time: 0.008333
101.124189 126.609292 130.499774 170.747461 -21.811316 -3.804980 0.105981 13.410353 3.720860 -0.025143 1.131318 0.311182 -0.064372 1.919239 0.527823 0.047478 12.087508 3.346561 -0.751967 21.461593 -2.941517 -0.110352 -2.822459 -2.982155 2.262084 6.821643 -4.424345 -7.078325 -4.752668 -3.594886 164.624294 -79.578155 -157.509221 -8.284676 10.576372 -3.493901 -0.667881 7.329627 -0.181929 7.208437 -1.576389 -0.626035 174.803947 -66.714154 158.448996 6.616303 3.492320 14.487023 7.974915 -57.229026 -8.744011 -131.700873 70.988842 -124.973921 1.536081 -4.095063 -14.823529 0.002356 -0.004399 0.001070 -19.142755 -61.201343 5.304332 62.327579 84.887391 56.195017 -3.126301 -25.348554 -0.134807 -0.002901 -0.000585 -0.001317
101.125316 126.609619 130.500454 170.728453 -21.813976 -3.804813 0.101281 13.414691 3.721763 -0.025518 1.132016 0.311553 -0.053475 1.918440 0.527917 0.029813 12.091565 3.350388 -0.753692 21.462477 -2.950920 -0.133598 -2.816397 -2.991387 2.274036 6.828873 -4.427414 -7.086583 -4.760514 -3.568814 164.599889 -79.561138 -157.568558 -8.295132 10.546664 -3.511083 -0.652026 7.324369 -0.187766 7.207391 -1.580271 -0.617340 174.900583 -66.707030 158.381372 6.618141 3.510040 14.506156 7.971296 -57.228238 -8.723070 -131.678818 70.992455 -124.956189 1.534092 -4.091942 -14.816786 0.000407 -0.003955 0.000185 -19.124376 -61.198576 5.312086 62.348479 84.885001 56.215745 -3.116371 -25.319854 -0.143536 -0.000504 0.002434 -0.000229
101.127545 126.610204 130.500547 170.685491 -21.820418 -3.802413 0.117571 13.419888 3.728644 -0.054770 1.133901 0.314486 -0.011696 1.917726 0.524929 0.011718 12.096925 3.356896 -0.756697 21.463098 -2.961489 -0.134492 -2.815318 -3.002058 2.261783 6.838925 -4.425338 -7.111211 -4.777235 -3.527688 164.533684 -79.537173 -157.539527 -8.307532 10.519394 -3.526416 -0.655106 7.314235 -0.189850 7.213180 -1.591890 -0.567416 174.949268 -66.704690 158.393717 6.665667 3.511935 14.507932 7.986895 -57.226026 -8.694808 -131.660483 70.996937 -124.938372 1.533631 -4.087013 -14.813936 -0.002241 -0.002173 -0.001017 -19.092838 -61.189096 5.332386 62.351093 84.884043 56.217985 -3.117437 -25.306500 -0.144336 0.001225 0.003095 0.000556
101.128243 126.610401 130.500639 170.668184 -21.820861 -3.802110 0.105534 13.420574 3.730394 -0.054801 1.137997 0.313727 -0.012379 1.916325 0.526951 0.023884 12.098491 3.356039 -0.766337 21.463906 -2.965771 -0.143758 -2.815411 -3.008995 2.251043 6.843497 -4.422682 -7.141532 -4.785094 -3.502248 164.489205 -79.521905 -157.479510 -8.344283 10.472982 -3.601492 -0.671660 7.307872 -0.186324 7.245906 -1.594420 -0.549880 174.919931 -66.706848 158.435817 6.664799 3.522431 14.510912 7.980014 -57.229700 -8.670560 -131.640924 70.999524 -124.925784 1.529702 -4.081630 -14.811927 -0.002896 -0.002930 -0.001315 -19.077105 -61.187013 5.343829 62.408446 84.873932 56.270636 -3.129647 -25.294475 -0.142855 0.002470 0.003731 0.001122
101.128221 126.610572 130.500111 170.662450 -21.820632 -3.802325 0.083224 13.424847 3.727763 -0.055496 1.141322 0.312703 -0.013067 1.914676 0.529518 0.035239 12.097569 3.355826 -0.760715 21.462293 -2.972867 -0.152253 -2.815609 -3.010246 2.252848 6.844689 -4.425239 -7.173714 -4.785666 -3.479902 164.481344 -79.505358 -157.465700 -8.376118 10.425928 -3.674251 -0.678579 7.303918 -0.184684 7.278657 -1.599979 -0.532226 174.933731 -66.702252 158.422860 6.660843 3.543842 14.502161 7.970369 -57.232614 -8.654154 -131.627799 70.998421 -124.919071 1.527416 -4.078568 -14.811149 -0.002690 -0.004195 -0.001221 -19.066181 -61.186299 5.349405 62.420587 84.870334 56.276293 -3.141302 -25.287049 -0.140510 0.003190 0.003816 0.001448
101.130332 126.610339 130.500929 170.635481 -21.813625 -3.807910 0.081680 13.424105 3.735677 -0.052714 1.144158 0.314211 -0.036574 1.920027 0.530552 0.020314 12.101207 3.362952 -0.736625 21.450522 -2.994691 -0.139430 -2.819036 -3.022314 2.299237 6.836034 -4.444113 -7.206397 -4.785891 -3.459701 164.625401 -79.475296 -157.706149 -8.361929 10.414930 -3.640651 -0.633822 7.288338 -0.201723 7.306986 -1.606493 -0.512265 174.926696 -66.698165 158.429366 6.621879 3.599574 14.474297 7.964228 -57.243101 -8.617217 -131.605852 71.005909 -124.896036 1.528446 -4.074992 -14.815820 0.000237 -0.004254 0.000108 -19.065258 -61.189986 5.386473 62.409084 84.873315 56.262777 -3.149906 -25.286314 -0.141122 0.003626 0.004041 0.001647
101.130930 126.609875 130.501558 170.615557 -21.803527 -3.807675 0.075836 13.423534 3.738282 -0.052669 1.144833 0.313393 -0.044884 1.923248 0.531720 0.016864 12.101311 3.364140 -0.760445 21.445404 -2.996860 -0.116338 -2.828892 -3.045028 2.279727 6.849831 -4.434945 -7.205474 -4.809372 -3.457828 164.686683 -79.436616 -157.803340 -8.354411 10.425366 -3.607379 -0.604232 7.276852 -0.211381 7.317359 -1.613882 -0.485352 174.938625 -66.687649 158.423998 6.626429 3.614207 14.463812 7.951676 -57.256591 -8.590679 -131.580250 71.013758 -124.875526 1.522269 -4.067998 -14.817753 0.001239 -0.004511 0.000562 -19.050084 -61.199398 5.399311 62.433339 84.871073 56.287369 -3.165656 -25.290304 -0.138846 0.002336 0.003254 0.001061
101.132267 126.609648 130.501560 170.603501 -21.795912 -3.813479 0.064805 13.426795 3.741941 -0.040899 1.139575 0.314841 -0.058530 1.928075 0.533157 0.005603 12.104084 3.365461 -0.770020 21.438752 -3.000075 -0.139922 -2.842326 -3.040408 2.300915 6.847253 -4.441833 -7.250528 -4.807958 -3.438537 164.725155 -79.394785 -157.850763 -8.371012 10.377413 -3.676919 -0.592929 7.269110 -0.211872 7.340420 -1.619826 -0.477279 175.066045 -66.663244 158.318142 6.686219 3.615218 14.457031 7.944561 -57.266107 -8.572321 -131.561689 71.013732 -124.852319 1.528024 -4.066146 -14.823539 0.002872 -0.005942 0.001304 -19.040820 -61.206122 5.408716 62.436911 84.873359 56.296508 -3.168224 -25.296811 -0.138534 0.000998 0.002824 0.000453
101.132952 126.609632 130.500610 170.591829 -21.792030 -3.814382 0.053062 13.431446 3.743011 -0.029711 1.136053 0.314363 -0.065098 1.930107 0.533919 0.005986 12.103489 3.365090 -0.778716 21.434405 -3.001185 -0.148484 -2.852483 -3.041270 2.303591 6.850440 -4.442439 -7.296354 -4.805950 -3.421078 164.766920 -79.350036 -157.902180 -8.380175 10.327689 -3.744681 -0.599424 7.270107 -0.205674 7.363179 -1.625017 -0.485365 175.134060 -66.650331 158.260749 6.705752 3.611130 14.450442 7.940779 -57.268509 -8.562631 -131.551351 71.020919 -124.838099 1.523531 -4.067389 -14.827413 0.002976 -0.005580 0.001351 -19.026020 -61.210982 5.409202 62.403317 84.886032 56.263941 -3.155819 -25.301164 -0.131993 -0.000841 0.002243 -0.000382
101.133628 126.609658 130.499389 170.581253 -21.788781 -3.814712 0.041690 13.435509 3.743320 -0.030669 1.136514 0.314724 -0.048448 1.925126 0.532625 -0.005164 12.106427 3.366294 -0.771790 21.430238 -3.005581 -0.172878 -2.863349 -3.033214 2.290467 6.861528 -4.434567 -7.311058 -4.815611 -3.419232 164.819367 -79.310513 -157.982712 -8.378688 10.293103 -3.775027 -0.604665 7.267870 -0.203550 7.380163 -1.622966 -0.471153 175.156413 -66.634953 158.252296 6.681872 3.557832 14.463113 7.940193 -57.271104 -8.560481 -131.557666 71.026998 -124.839450 1.520173 -4.069973 -14.829811 0.001222 -0.005174 0.000555 -19.012390 -61.214572 5.411253 62.364160 84.899588 56.220498 -3.131955 -25.312230 -0.122946 -0.001624 0.000179 -0.000737
101.133405 126.609277 130.498718 170.573900 -21.780216 -3.811209 0.025139 13.440443 3.741334 -0.026163 1.133471 0.313829 -0.049901 1.925631 0.533090 -0.026544 12.113739 3.369212 -0.766663 21.414255 -3.015682 -0.169156 -2.871436 -3.041166 2.299569 6.862912 -4.441822 -7.296966 -4.831254 -3.424392 164.848165 -79.293701 -158.033910 -8.382885 10.239290 -3.827903 -0.588885 7.256655 -0.209207 7.368031 -1.615825 -0.436668 175.136566 -66.615793 158.317058 6.683250 3.523674 14.483332 7.942303 -57.278332 -8.576376 -131.587008 71.037407 -124.867193 1.533090 -4.082349 -14.829415 -0.004390 -0.005345 -0.001993 -19.002761 -61.222779 5.413742 62.327764 84.903936 56.184396 -3.138957 -25.324705 -0.128011 -0.000827 -0.002486 -0.000376
